<svg width="102" height="34" viewBox="0 0 102 34" fill="none" xmlns="http://www.w3.org/2000/svg">
<path d="M19.2204 21.4056C19.1204 18.7056 18.7204 16.1056 18.7204 13.4056C18.7204 11.2056 19.1204 9.00561 18.3204 6.90561C18.3204 6.70561 18.4204 6.40561 18.4204 6.20561C18.6204 5.20561 15.1204 5.70561 14.6204 6.70561C14.3204 7.00561 14.1204 7.30561 14.2204 7.70561C14.2204 7.80561 14.3204 7.90561 14.3204 8.00561C13.6204 11.2056 12.7204 14.3056 11.7204 17.4056C11.3204 18.6056 10.8204 19.7056 10.4204 20.9056C9.82041 19.8056 9.22041 18.7056 8.82041 17.5056C7.42041 14.1056 6.22041 10.6056 4.52041 7.30561C4.72041 5.80561 1.32041 5.90561 0.620408 7.30561C-0.179592 9.00561 -0.0795918 10.7056 0.220408 12.5056C0.520408 14.5056 0.620408 16.5056 0.620408 18.6056C0.620408 22.6056 1.02041 26.5056 1.02041 30.5056C0.620408 30.9056 0.520408 31.4056 0.920408 31.9056C1.12041 32.1056 1.32041 32.3056 1.52041 32.4056C2.52041 33.1056 5.12041 32.5056 5.12041 31.1056C5.12041 27.0056 4.82041 22.9056 4.72041 18.7056C4.72041 18.3056 4.72041 17.9056 4.72041 17.5056C4.82041 17.6056 4.82041 17.8056 4.92041 17.9056C5.52041 19.5056 6.22041 21.1056 7.12041 22.6056C8.02041 24.1056 8.42041 25.7056 8.92041 27.3056C8.72041 27.5056 8.62041 27.8056 8.72041 28.0056C8.72041 28.2056 8.82041 28.3056 9.02041 28.4056C9.62041 28.9056 10.8204 28.7056 11.5204 28.4056C11.8204 28.3056 12.1204 28.1056 12.3204 28.0056C12.6204 27.8056 13.2204 27.3056 13.0204 26.8056C13.0204 26.7056 12.9204 26.6056 12.9204 26.5056C13.4204 25.2056 13.6204 23.9056 13.9204 22.6056C14.2204 21.2056 14.7204 19.8056 15.2204 18.5056C15.3204 19.1056 15.3204 19.7056 15.4204 20.4056C15.6204 23.0056 15.4204 25.5056 15.4204 28.0056C15.4204 28.8056 15.5204 29.6056 15.6204 30.5056C15.7204 30.8056 16.0204 32.3056 15.9204 32.4056C15.1204 32.9056 15.3204 33.5056 16.1204 33.7056C17.0204 33.9056 18.2204 33.6056 18.9204 33.0056C20.1204 31.9056 19.5204 30.2056 19.3204 28.8056C18.8204 26.4056 19.3204 23.8056 19.2204 21.4056Z" fill="black"/>
<path d="M27.6204 22.1056C27.5204 20.1056 26.8204 18.2056 26.8204 16.2056C26.8204 13.9056 27.0204 11.6056 26.6204 9.30561C26.5204 8.60561 22.5204 9.40561 22.7204 10.3056C23.0204 12.4056 22.9204 14.5056 22.9204 16.7056C22.9204 18.7056 23.4204 20.6056 23.6204 22.6056C23.9204 24.7056 23.5204 26.8056 23.7204 28.8056C23.8204 29.8056 24.5204 31.5056 23.8204 32.4056C23.4204 32.9056 25.3204 32.7056 25.4204 32.7056C26.2204 32.6056 27.2204 32.3056 27.7204 31.7056C28.4204 30.9056 27.9204 29.3056 27.8204 28.3056C27.5204 26.3056 27.7204 24.1056 27.6204 22.1056Z" fill="black"/>
<path d="M43.9203 18.8057C41.8203 16.0057 38.0203 18.0057 35.3203 17.3057C33.9203 16.9057 33.9203 15.0057 33.9203 13.9057C33.9203 12.5057 33.8203 11.2057 33.6203 9.80567C33.5203 8.70567 33.6203 7.70567 34.3203 6.90567C34.4203 6.80567 35.2203 6.60567 35.1203 6.60567C35.5203 6.50567 35.8203 6.50567 36.2203 6.50567C37.7203 6.40567 40.8203 6.70567 40.2203 9.00567C39.9203 10.0057 43.8203 9.40567 44.1203 8.40567C45.3203 3.80567 36.8203 4.70567 34.4203 5.30567C32.2203 5.90567 29.8203 7.10567 29.6203 9.70567C29.5203 10.9057 29.9203 12.1057 29.9203 13.3057C30.0203 14.7057 29.7203 16.1057 30.2203 17.4057C31.3203 20.4057 35.7203 19.0057 38.0203 19.1057C41.8203 19.4057 40.7203 24.6057 40.7203 27.0057C40.7203 28.3057 41.9203 30.4057 40.9203 31.5057C40.3203 32.2057 38.9203 32.2057 38.1203 32.3057C37.3203 32.4057 35.9203 32.6057 35.4203 31.8057C34.4203 30.4057 35.5203 28.0057 35.3203 26.4057C35.2203 25.5057 31.2203 26.3057 31.4203 27.4057C31.7203 30.0057 30.0203 33.5057 33.8203 34.0057C36.2203 34.3057 39.0203 33.8057 41.3203 33.1057C42.5203 32.7057 43.6203 32.2057 44.5203 31.3057C45.5203 30.4057 45.2203 29.0057 44.9203 27.8057C44.4203 24.7057 45.8203 21.3057 43.9203 18.8057Z" fill="black"/>
<path d="M61.3204 18.6056C61.2204 14.8056 60.6204 11.1056 60.6204 7.3056C60.6204 5.3056 56.6204 6.0056 56.6204 7.6056C56.6204 11.2056 57.1204 14.8056 57.3204 18.4056C57.3204 18.5056 57.3204 18.5056 57.3204 18.6056C55.4204 18.6056 53.4204 18.8056 51.4204 18.8056C51.6204 14.2056 50.8204 9.6056 51.0204 4.9056C51.0204 4.3056 47.1204 4.8056 47.1204 5.9056C46.9204 10.4056 47.7204 14.8056 47.6204 19.3056C47.5204 21.4056 47.4204 23.6056 47.3204 25.7056C47.3204 26.8056 47.5204 27.9056 47.6204 29.0056C47.7204 30.0056 48.1204 31.3056 47.8204 32.3056C47.6204 33.1056 51.4204 32.6056 51.7204 31.6056C52.2204 29.8056 51.5204 27.6056 51.3204 25.8056C51.1204 24.1056 51.3204 22.3056 51.4204 20.6056C53.4204 20.5056 55.5204 20.3056 57.5204 20.6056C57.6204 22.0056 57.7204 23.4056 57.8204 24.7056C57.9204 25.9056 58.0204 27.0056 58.0204 28.2056C58.0204 29.2056 58.1204 30.7056 57.8204 31.7056C57.0204 33.8056 60.9204 33.6056 61.5204 32.1056C62.2204 30.2056 62.0204 27.9056 61.9204 25.9056C61.7204 23.4056 61.3204 21.0056 61.3204 18.6056Z" fill="black"/>
<path d="M78.2205 23.0057C77.3205 20.2057 75.8205 17.8057 74.6205 15.2057C75.6205 13.3057 76.6205 11.3057 77.5205 9.30568C78.3205 7.50568 78.9205 5.50568 80.6205 4.20568C81.2205 3.80568 81.2205 3.30568 80.3205 3.20568C79.4205 3.10568 78.2205 3.40568 77.5205 3.90568C76.1205 5.20568 75.1205 6.60568 74.4205 8.30568C73.5205 10.4057 72.5205 12.4057 71.5205 14.4057C71.4205 14.5057 71.4205 14.7057 71.3205 14.8057C70.8205 15.1057 70.5205 15.6057 70.7205 16.1057C69.9205 17.7057 69.1205 19.2057 68.2205 20.7057C67.9205 15.2057 67.2205 9.60568 67.0205 4.10568C67.0205 2.80568 63.0205 3.60568 63.1205 5.10568C63.3205 12.0057 64.3205 18.8057 64.4205 25.7057C64.4205 25.7057 64.4205 25.7057 64.4205 25.8057C64.1205 26.1057 64.2205 26.3057 64.5205 26.4057C64.5205 28.2057 64.4205 29.9057 64.3205 31.7057C63.8205 32.4057 64.8205 32.8057 65.4205 32.8057H65.5205C66.2205 32.8057 68.1205 32.5057 68.2205 31.4057C68.4205 29.3057 68.5205 27.2057 68.4205 25.1057C70.0205 23.4057 71.3205 21.5057 72.5205 19.5057C73.3205 21.0057 74.0205 22.5057 74.5205 24.1057C75.4205 26.8057 76.8205 29.4057 77.6205 32.1057C78.1205 33.9057 82.1205 32.8057 81.5205 31.1057C80.5205 28.3057 79.1205 25.8057 78.2205 23.0057Z" fill="black"/>
<path d="M101.72 18.4057C101.52 17.6057 100.32 17.6057 99.4205 17.6057C99.4205 17.3057 99.4205 16.9057 99.4205 16.6057C99.3205 13.9057 99.2205 11.2057 99.0205 8.60566C98.8205 6.10566 97.4205 5.30566 95.0205 5.40566C92.6205 5.50566 89.8205 5.90566 87.5205 6.80566C84.9205 7.80566 83.4205 9.70566 82.9205 12.5057C82.4205 15.5057 83.1205 18.7057 83.3205 21.7057C83.5205 25.2057 83.4205 28.7057 83.4205 32.2057C83.4205 32.8057 87.3205 32.2057 87.3205 31.2057C87.3205 28.4057 87.3205 25.6057 87.3205 22.9057C87.3205 22.1057 87.2205 21.3057 87.2205 20.5057C88.6205 19.9057 90.9205 20.5057 92.3205 20.6057C93.4205 20.7057 94.5205 20.4057 95.5205 20.3057C95.5205 22.6057 95.6205 24.9057 95.7205 27.2057C95.7205 28.4057 96.2205 30.7057 95.3205 31.7057C94.9205 32.2057 96.8205 32.0057 96.9205 32.0057C97.7205 31.9057 98.7205 31.6057 99.2205 31.0057C100.12 29.9057 99.7205 27.2057 99.6205 25.9057C99.5205 24.0057 99.5205 22.1057 99.5205 20.2057C100.62 20.0057 101.92 19.3057 101.72 18.4057ZM87.1205 18.3057C87.0205 17.1057 86.9205 15.8057 86.8205 14.6057C86.6205 12.3057 86.9205 9.00566 89.1205 7.60566C89.7205 7.20566 90.8205 7.30566 91.5205 7.20566C92.5205 7.00566 93.5205 6.80566 94.3205 7.40566C95.5205 8.20566 95.2205 11.1057 95.2205 12.3057C95.2205 14.3057 95.4205 16.3057 95.5205 18.3057C94.9205 18.4057 94.4205 18.4057 93.8205 18.4057C91.5205 18.2057 89.2205 17.8057 87.1205 18.3057Z" fill="black"/>
<path d="M24.2204 6.60564C24.7204 6.50564 25.2204 6.40564 25.7204 6.10564C25.8204 6.00564 25.9204 5.90564 25.9204 5.90564C26.4204 5.60564 26.9204 5.10564 26.6204 4.50564C26.1204 3.40564 26.2204 2.30564 26.2204 1.10564C26.2204 0.10564 25.2204 -0.0943604 24.4204 -0.0943604C23.7204 0.00563965 22.2204 0.50564 22.2204 1.40564C22.2204 2.40564 22.1204 3.40564 22.3204 4.40564C22.3204 4.50564 22.2204 4.60564 22.2204 4.80564C22.1204 5.00564 22.2204 5.20564 22.3204 5.40564V5.50564C22.3204 5.60564 22.3204 5.70564 22.3204 5.80564C22.4204 6.00564 22.5204 6.20564 22.7204 6.30564C23.3204 6.60564 23.8204 6.60564 24.2204 6.60564Z" fill="black"/>
</svg>
