<svg width="18" height="18" viewBox="0 0 18 18" fill="none" xmlns="http://www.w3.org/2000/svg">
<path d="M13.8196 12.2747L13.5519 12.6227L13.8624 12.9331L17.3025 16.3733C17.3709 16.4815 17.4207 16.5851 17.4534 16.6751C17.4916 16.7802 17.5 16.8484 17.5 16.875C17.5 17.2125 17.2125 17.5 16.875 17.5C16.7109 17.5 16.6254 17.4793 16.5749 17.4591C16.5284 17.4405 16.4812 17.4105 16.4104 17.3396L12.9331 13.8624L12.638 13.5673L12.2949 13.8048C11.0348 14.6772 9.49594 15.25 7.875 15.25C3.75341 15.25 0.5 11.9966 0.5 7.875C0.5 3.75341 3.75341 0.5 7.875 0.5C11.9966 0.5 15.25 3.75341 15.25 7.875C15.25 9.51475 14.7685 11.0412 13.8196 12.2747ZM7.875 1.75C4.53068 1.75 1.75 4.53068 1.75 7.875C1.75 11.2193 4.53068 14 7.875 14C11.2193 14 14 11.2193 14 7.875C14 4.53068 11.2193 1.75 7.875 1.75Z" fill="#CCCCCC" stroke="#CCCCCC"/>
</svg>
